# xmcd
#
# Track frame offsets: 
#        150
#        13897
#        27004
#        44748
#        61374
#        76427
#        91873
#        106832
#        117008
#        141572
#        159707
#        176806
#        190647
#        206813
#        222377
#        242864
#
# Disc length: 3440 seconds
#
# Revision: 6
# Processed by: cddbd v1.5.2PL0 Copyright (c) Steve Scherf et al.
# Submitted via: ExactAudioCopy v0.99pb4
#
DISCID=e70d6e10
DTITLE=Various Artist - License To Chill
DYEAR=2004
DGENRE=Country
TTITLE0=Jimmy Buffett (with Clint Black, Kenny Chesney, Alan Jackson, 
TTITLE0=Toby Keith and George Strait) - Hey Good Lookin'
TTITLE1=Jimmy Buffett (with Alan Jackson) - Boats To Build
TTITLE2=Jimmy Buffett (with Kenny Chesney) - License To Chill
TTITLE3=Jimmy Buffett - Coast Of Carolina
TTITLE4=Jimmy Buffett (with Toby Keith) - Piece Of Work
TTITLE5=Jimmy Buffett - Anything Anytime Anywhere
TTITLE6=Jimmy Buffett (with Martina McBride) - Trip Around The Sun
TTITLE7=Jimmy Buffett - Simply Complicated
TTITLE8=Jimmy Buffett - Coastal Confessions
TTITLE9=Jimmy Buffett (with George Strait) - Sea Of Heartbreak
TTITLE10=Jimmy Buffett (with Clint Black) - Conky Tonkin'
TTITLE11=Jimmy Buffett (with Bill Withers) - Playin' The Loser Again
TTITLE12=Jimmy Buffett - Window On The World
TTITLE13=Jimmy Buffett (with Nanci Griffith) - Someone I Used To Love
TTITLE14=Jimmy Buffett - Scarlet Begonias
TTITLE15=Jimmy Buffett - Back To The Island
EXTD=
EXTT0=
EXTT1=
EXTT2=
EXTT3=
EXTT4=
EXTT5=
EXTT6=
EXTT7=
EXTT8=
EXTT9=
EXTT10=
EXTT11=
EXTT12=
EXTT13=
EXTT14=
EXTT15=
PLAYORDER=
